inDegrees=no
num_controls=7
num_derivatives=13
num_iterations=108
num_multipliers=7
num_parameters=0
num_slacks=7
num_states=26
objective=0.477087
objective_accelerations=0.044697
objective_balance=0.003595
objective_effort=0.040677
objective_height=0.382455
objective_ligament=0.005664
solver_duration=1486.884050
status=Solve_Succeeded
success=true
DataType=double
version=3
OpenSimVersion=4.5
endheader
time	/jointset/ground_pelvis/pelvis_tilt/value	/jointset/ground_pelvis/pelvis_tx/value	/jointset/ground_pelvis/pelvis_ty/value	/jointset/hip_l/hip_flexion_l/value	/jointset/hip_l/hip_adduction_l/value	/jointset/hip_l/hip_rotation_l/value	/jointset/back/lumbar_extension/value	/jointset/patellofemoral_l/patellar_flexion_l/value	/jointset/knee_l/knee_flexion_l/value	/jointset/knee_l/knee_adduction_l/value	/jointset/knee_l/knee_rotation_l/value	/jointset/ankle_l/ankle_angle_l/value	/jointset/subtalar_l/subtalar_angle_l/value	/jointset/ground_pelvis/pelvis_tilt/speed	/jointset/ground_pelvis/pelvis_tx/speed	/jointset/ground_pelvis/pelvis_ty/speed	/jointset/hip_l/hip_flexion_l/speed	/jointset/hip_l/hip_adduction_l/speed	/jointset/hip_l/hip_rotation_l/speed	/jointset/back/lumbar_extension/speed	/jointset/patellofemoral_l/patellar_flexion_l/speed	/jointset/knee_l/knee_flexion_l/speed	/jointset/knee_l/knee_adduction_l/speed	/jointset/knee_l/knee_rotation_l/speed	/jointset/ankle_l/ankle_angle_l/speed	/jointset/subtalar_l/subtalar_angle_l/speed	/forceset/tau_hip_flexion_l	/forceset/tau_hip_adduction_l	/forceset/tau_hip_rotation_l	/forceset/tau_knee_flexion_l	/forceset/tau_ankle_angle_l	/forceset/tau_subtalar_angle_l	/forceset/tau_lumbar_extension	lambda_cid13_p0	lambda_cid13_p1	lambda_cid13_p2	lambda_cid13_p3	lambda_cid13_p4	lambda_cid13_p5	lambda_cid14_p0	/jointset/ground_pelvis/pelvis_tilt/accel	/jointset/ground_pelvis/pelvis_tx/accel	/jointset/ground_pelvis/pelvis_ty/accel	/jointset/hip_l/hip_flexion_l/accel	/jointset/hip_l/hip_adduction_l/accel	/jointset/hip_l/hip_rotation_l/accel	/jointset/back/lumbar_extension/accel	/jointset/patellofemoral_l/patellar_flexion_l/accel	/jointset/knee_l/knee_flexion_l/accel	/jointset/knee_l/knee_adduction_l/accel	/jointset/knee_l/knee_rotation_l/accel	/jointset/ankle_l/ankle_angle_l/accel	/jointset/subtalar_l/subtalar_angle_l/accel	gamma_cid13_p0	gamma_cid13_p1	gamma_cid13_p2	gamma_cid13_p3	gamma_cid13_p4	gamma_cid13_p5	gamma_cid14_p0
1	-0.1106420837024033	-0.0594124498236378	0.6793983972832748	1.336379418559248	-0.3272286185454299	0.07210728218533706	-0.9599297249248308	1.406601484058001	1.40660148405796	-0.06158907924889949	-0.1744566829435732	0.2793498756350514	0.06608216752020131	0.09931979996573365	0.02470955843139943	0.06903026453139711	-0.2916674582006816	-0.007666168298019214	-0.06161818926514929	-0.0002622205859155553	-0.1588267946005979	-0.1588267946005978	-0.005228564896905967	-0.0001345093645708259	0.024609439708165	0.001742986333030158	-0.3795604366098483	0.02181050174688806	0.001444709865985886	-0.381255453041333	0.04470645395203399	0.02085414394006515	0.4328777452349847	-37.51746654786286	-0.8982602587269755	-2.126871694157659	11.5424359040659	-807.0938032759503	-64.53553452337327	-0.04142494709138336	1.013136189307281	0.05658794628335773	1.654492290485715	-5.473371442061944	-0.1436434553922446	-1.676298217825269	0.0260374144167918	-5.165951650904877	-5.165951650904896	-0.4143707932283771	-0.004162801540778012	-1.067809188089211	-0.6355992046527215	-9.754203200812307e-09	2.043207597575242e-08	5.941297782312543e-08	8.467559291766948e-09	-2.599483989601914e-08	1.2714831808501e-07	-1.604854925658552e-08
1.01	-0.1095990776827966	-0.05916248216070968	0.6801710823997745	1.333190680950398	-0.3273116678074288	0.07140680450081273	-0.9599298087051299	1.404755468440631	1.404755468440605	-0.06166038942177594	-0.1744571564251645	0.279542604446716	0.06606889514530884	0.1092432496969148	0.02528997069469893	0.08548401699714051	-0.3459969095904767	-0.008933162331579356	-0.07843948376997401	0.0003127301209209586	-0.2103513536348292	-0.2103513536348295	-0.009053560577550092	4.627279388777104e-05	0.01391723185620566	-0.00439248023909183	-0.3786582491194793	0.0219843139231108	0.001374075235627199	-0.3809301440220549	0.04460506141228286	0.02098801127924248	0.4324366409768604	-37.50046490085327	-0.9731282964622872	-2.099226933753394	11.39371330904417	-806.5283913396494	-64.58890611870498	-0.04146022667848431	0.9762239166588594	0.05966951175366225	1.637399307101345	-5.400261966652099	-0.1166583251311558	-1.679384205267897	0.08331373806478176	-5.141956832242438	-5.141956832242463	-0.369589214436412	0.03019266524210855	-1.072789838573071	-0.6017877002885224	-1.467595983833625e-08	1.495077181412865e-08	1.028179090095245e-07	1.079810932628484e-08	-3.071138965868804e-08	1.553555611872526e-07	-2.447322427199569e-08
1.02	-0.108457982255551	-0.05890653004606849	0.6811076215574282	1.329461142831807	-0.327407073199322	0.07053924604354864	-0.9599221250105129	1.402394957472407	1.402394957472395	-0.06177055460324979	-0.1744556232970306	0.2796278385288962	0.06599441464133583	0.1189376814935103	0.02590644877401438	0.1018010727621919	-0.3998275601488243	-0.01013739427686991	-0.09503434381307173	0.001291274397665554	-0.2617258647714683	-0.2617258647714684	-0.01299956661635554	0.0002668125804635568	0.003110493811293731	-0.01049863948307726	-0.3777560616291104	0.02215812609933365	0.001303440605268768	-0.3806048350027998	0.04450366887253177	0.02112187861842294	0.4319955367187558	-37.49461677052084	-1.045080366220262	-2.07314715903437	11.29263534258705	-806.1135650540513	-64.61759014014984	-0.04149567470341031	0.9673326023901548	0.06380110948654842	1.627152950347318	-5.373611275772423	-0.1310910377383281	-1.63101132547987	0.1067561283984066	-5.13594207138644	-5.135942071386402	-0.438572864860852	0.003788724082659973	-1.090715226679879	-0.6297377390254111	-2.078743482184082e-08	1.746073595367936e-09	1.210566527269978e-07	1.499557816924969e-08	-3.757261830397039e-08	1.654896206968693e-07	-2.956624388349205e-08
1.03	-0.1072210189790296	-0.05864409280576706	0.6822066514956439	1.325195582182613	-0.3275141958337499	0.06950636944257518	-0.9599020965148521	1.399521467917463	1.399521467917465	-0.06192027703605121	-0.1744518329437478	0.2796046179777385	0.06585913855847483	0.1284225777395079	0.02660101667445705	0.1179825122141714	-0.4532217805591719	-0.0112754284731713	-0.1115559362567468	0.002837214615199025	-0.3129460243248124	-0.3129460243248117	-0.01691211575998302	0.000482398702300223	-0.007755318202914361	-0.01653967645470957	-0.3773066591622896	0.02240249552904139	0.001189360460783832	-0.3800026237378672	0.04452704654570407	0.02132727349996358	0.4321790919404349	-37.44625767788337	-1.16534951453886	-2.028159634525294	10.90377879926337	-805.9072558882273	-64.66818335902883	-0.04154243361275735	0.9342059175736537	0.07529110652387444	1.610270109747747	-5.312913041984129	-0.1034162875380036	-1.66500526827214	0.1969314505317872	-5.111142657734981	-5.111142657734851	-0.3626942326857212	0.02914700053014936	-1.084623029273786	-0.5887659283816059	-2.691104978846765e-08	-1.153743476683299e-08	1.390385986131555e-07	1.921209720413748e-08	-4.445573142764677e-08	1.754392599657449e-07	-3.462526701127498e-08
1.04	-0.1058901791836744	-0.05837410859122106	0.683466821961804	1.320397962205652	-0.327632350145533	0.06830782250427264	-0.9598629249205957	1.396136558814901	1.396136558814917	-0.06210814461900342	-0.1744461460403874	0.2794727175383422	0.06566395625546763	0.1377129852602693	0.0274158436229285	0.1340291783511308	-0.5062394257022466	-0.01234372974795119	-0.1281684112788547	0.005119894116772173	-0.364009774295219	-0.3640097742952172	-0.02062859664649149	0.0006461225959747058	-0.01862548383642289	-0.02247988351232055	-0.3768572566954689	0.02264686495874917	0.001075280316299357	-0.3794004124729345	0.04455042421887644	0.02153266838150433	0.4323626471621139	-37.40924489540581	-1.282667340066897	-1.984744605494226	10.56249615709173	-805.8539308379396	-64.69516765876159	-0.04158952756159563	0.9284348573429186	0.08785291909230417	1.600198287343306	-5.298296222317722	-0.117144453434029	-1.649187841166445	0.2541039852063408	-5.104660154798838	-5.10466015479885	-0.3993592134370532	-0.006583721549911343	-1.091585950539958	-0.6095717562211456	-2.81912150763199e-08	-1.971935850910098e-08	1.752601508668155e-07	1.399410531749876e-08	-4.498800791479226e-08	1.903283146870315e-07	-4.159638554794009e-08
1.05	-0.1044692914615462	-0.05809542540050543	0.6848863293850384	1.315074852296939	-0.3277608443043434	0.06694338223590558	-0.9597949778491912	1.392242292372011	1.392242292372029	-0.06233272931296664	-0.1744391046051519	0.279231658741717	0.06540967570861903	0.1462357717068608	0.0283355170487219	0.1498032098899038	-0.5580293290416408	-0.01334152293683047	-0.1446700107561797	0.008827598438252654	-0.4147662445781863	-0.4147662445781883	-0.02430117347359906	0.0007555058274174244	-0.02963035296456946	-0.02837594502614076	-0.3759535900127647	0.02285337415076404	0.0009277988592692452	-0.3783612748394673	0.04457949438426961	0.02182336830031458	0.4323229007082152	-37.31899172410074	-1.459372269717461	-1.916992819516461	10.17792477870111	-805.0729534803436	-64.76298716859868	-0.04165832065319378	0.7798782077446985	0.09623457417163508	1.555632058532383	-5.066358531124028	-0.08908281285751328	-1.643239939512991	0.4828153967427526	-5.04954021287463	-5.049540212875171	-0.3531565012175056	0.0187481545819532	-1.111549904842732	-0.5796019545732727	-2.932002256171046e-08	-2.774185773199609e-08	2.120516908194599e-07	8.481284964562404e-09	-4.532182075704619e-08	2.053717261412059e-07	-4.862725706613276e-08
1.06	-0.1029700403410665	-0.05780710347156209	0.6864615024179381	1.309244439126556	-0.3278989136072909	0.06541540718506561	-0.9596792113863474	1.387842781276725	1.387842781276747	-0.06259442969197504	-0.1744311595757839	0.2788792287516322	0.06509643882551008	0.1533856649305484	0.02934359126847113	0.1651623002842005	-0.6077000780359856	-0.01425875857541527	-0.1608753677734029	0.01468377240468727	-0.4650587047743119	-0.4650587047743174	-0.02805173365550666	0.0008268414224837214	-0.04089972252836332	-0.03427115076439354	-0.3750499233300605	0.02305988334277899	0.0007803174022392408	-0.3773221372059846	0.04460856454966283	0.02211406821912494	0.4322831542542285	-37.24021002535186	-1.633101200814521	-1.850820611120307	9.842396073423739	-804.4446325504066	-64.80919159779147	-0.0417257262347571	0.6538562127621446	0.1055330778834693	1.517210058448051	-4.874465353307827	-0.1010329433751306	-1.58993934914607	0.6837979141971665	-5.011858137430495	-5.011858137430488	-0.4149558843974789	-0.01419324882519571	-1.144486037671236	-0.6094006011076558	-3.723589572794633e-08	-3.799429317790876e-08	2.231399936706232e-07	1.855649431421058e-08	-5.526196561045221e-08	2.119759310621026e-07	-5.187779268560382e-08
1.07	-0.1014028232085331	-0.05750811167158232	0.6881886653559048	1.302923717669839	-0.3280457715126608	0.06372640282780814	-0.9594979701651342	1.382942543834718	1.382942543834742	-0.06289363438805268	-0.1744227679826399	0.2784135633978695	0.06472459431769363	0.1601606878731756	0.03048396131326615	0.180248524275811	-0.6565102510400388	-0.01509950193802616	-0.1769283809058725	0.0215416809780079	-0.5149259586083695	-0.5149259586083798	-0.03175562364778616	0.0008384179967035038	-0.05220036643633835	-0.04006170334075587	-0.3741224775702887	0.0233514700597461	0.0005928164454239448	-0.3758789999950868	0.04458842295141333	0.02249722810761726	0.431912666877397	-37.15111589667242	-1.861501268532023	-1.761414224454996	9.371367312423933	-803.5733727047967	-64.89366872906983	-0.0417886726305142	0.7047603019879741	0.1226739020170551	1.501050824103843	-4.894204691248943	-0.07361998056558279	-1.613459596470881	0.6833686999096334	-4.964724225010039	-4.964724225010973	-0.3430988046736598	0.006925854903532952	-1.117910125318314	-0.5584948697468344	-4.551278302614211e-08	-4.836534225270535e-08	2.328611030589417e-07	2.946085417995378e-08	-6.571308557083447e-08	2.181312420184632e-07	-5.492724660833434e-08
1.08	-0.09976476885317839	-0.0571968391843067	0.6900660349847051	1.296112912199622	-0.3282006418412291	0.0618767728789904	-0.9592488335839858	1.377545520810647	1.377545520810674	-0.06322887663365932	-0.1744146420748822	0.2778358802934357	0.06429592182734428	0.1675531094948012	0.03179972872764156	0.1952036384508738	-0.7057168807358853	-0.01586124321509766	-0.1930004860854225	0.02826284439173297	-0.5644158211870937	-0.5644158211871114	-0.03525924356128457	0.0007737043452419894	-0.06330327266262027	-0.04563674727097075	-0.373195031810517	0.02364305677671322	0.0004053154886088288	-0.3744358627841891	0.04456828135316389	0.02288038799610961	0.4315421795005653	-37.07377854860975	-2.086830131621871	-1.673654358220559	8.948539746316095	-802.858280500752	-64.95843562987123	-0.04184953277840341	0.7773359485618172	0.1406125517995447	1.490988095138526	-4.953756691666318	-0.08523252626725365	-1.593757758562143	0.6564488822780584	-4.936379886363829	-4.936379886363778	-0.3749018686412602	-0.02945129396145441	-1.104938501332587	-0.566298871878169	-4.784158537240576e-08	-5.941952180051485e-08	2.559983747127154e-07	2.703057473896908e-08	-6.78510296451171e-08	2.192632006835452e-07	-5.945820340719633e-08
